<?xml version="1.0" encoding="UTF-8"?>
<svg version="1.1" xmlns="http://www.w3.org/2000/svg" width="140" height="141">
<path d="M0 0 C46.2 0 92.4 0 140 0 C140 46.53 140 93.06 140 141 C93.8 141 47.6 141 0 141 C0 94.47 0 47.94 0 0 Z " fill="#000B25" transform="translate(0,0)"/>
<path d="M0 0 C46.2 0 92.4 0 140 0 C140 46.53 140 93.06 140 141 C93.8 141 47.6 141 0 141 C0 94.47 0 47.94 0 0 Z M22.6875 21.625 C19.79436154 25.69682449 19.84042449 28.79759379 19.82299805 33.65917969 C19.81642685 34.44962677 19.80985565 35.24007385 19.80308533 36.05447388 C19.78333481 38.67694184 19.77168504 41.29935245 19.76171875 43.921875 C19.75764322 44.81722206 19.7535677 45.71256912 19.74936867 46.63504791 C19.72849912 51.37518586 19.714202 56.11529478 19.70483398 60.85546875 C19.69377568 65.74932426 19.65938511 70.6427243 19.61966228 75.53641891 C19.5935008 79.30085082 19.5851425 83.06517421 19.58155251 86.82968903 C19.57668428 88.63338543 19.56506355 90.43707692 19.54651451 92.24068451 C19.52213562 94.76856909 19.52308565 97.29527575 19.5300293 99.82324219 C19.51721924 100.565289 19.50440918 101.30733582 19.49121094 102.0718689 C19.54234155 107.19182643 20.79672554 110.04824386 24 114 C29.05628042 118.45434227 32.06784782 119.1533752 38.65917969 119.17700195 C39.44962677 119.18357315 40.24007385 119.19014435 41.05447388 119.19691467 C43.67694184 119.21666519 46.29935245 119.22831496 48.921875 119.23828125 C50.26489559 119.24439454 50.26489559 119.24439454 51.63504791 119.25063133 C56.37518586 119.27150088 61.11529478 119.285798 65.85546875 119.29516602 C70.74932426 119.30622432 75.6427243 119.34061489 80.53641891 119.38033772 C84.30085082 119.4064992 88.06517421 119.4148575 91.82968903 119.41844749 C93.63338543 119.42331572 95.43707692 119.43493645 97.24068451 119.45348549 C99.76856909 119.47786438 102.29527575 119.47691435 104.82324219 119.4699707 C105.565289 119.48278076 106.30733582 119.49559082 107.0718689 119.50878906 C112.19182643 119.45765845 115.04824386 118.20327446 119 115 C123.45434227 109.94371958 124.1533752 106.93215218 124.17700195 100.34082031 C124.18357315 99.55037323 124.19014435 98.75992615 124.19691467 97.94552612 C124.21666519 95.32305816 124.22831496 92.70064755 124.23828125 90.078125 C124.24235678 89.18277794 124.2464323 88.28743088 124.25063133 87.36495209 C124.27150088 82.62481414 124.285798 77.88470522 124.29516602 73.14453125 C124.30622432 68.25067574 124.34061489 63.3572757 124.38033772 58.46358109 C124.4064992 54.69914918 124.4148575 50.93482579 124.41844749 47.17031097 C124.42331572 45.36661457 124.43493645 43.56292308 124.45348549 41.75931549 C124.47786438 39.23143091 124.47691435 36.70472425 124.4699707 34.17675781 C124.48278076 33.434711 124.49559082 32.69266418 124.50878906 31.9281311 C124.45765845 26.80817357 123.20327446 23.95175614 120 20 C114.94371958 15.54565773 111.93215218 14.8466248 105.34082031 14.82299805 C104.15514969 14.81314125 104.15514969 14.81314125 102.94552612 14.80308533 C100.32305816 14.78333481 97.70064755 14.77168504 95.078125 14.76171875 C94.18277794 14.75764322 93.28743088 14.7535677 92.36495209 14.74936867 C87.62481414 14.72849912 82.88470522 14.714202 78.14453125 14.70483398 C73.25067574 14.69377568 68.3572757 14.65938511 63.46358109 14.61966228 C59.69914918 14.5935008 55.93482579 14.5851425 52.17031097 14.58155251 C50.36661457 14.57668428 48.56292308 14.56506355 46.75931549 14.54651451 C44.23143091 14.52213562 41.70472425 14.52308565 39.17675781 14.5300293 C38.434711 14.51721924 37.69266418 14.50440918 36.9281311 14.49121094 C30.48582429 14.55554723 26.86544139 16.88247193 22.6875 21.625 Z " fill="#FEFEFE" transform="translate(0,0)"/>
<path d="M0 0 C5.76852351 3.17994042 9.50385263 7.14212787 11.875 13.3125 C12.23394704 17.27888311 12.15803869 21.20917097 12.0625 25.1875 C12.04219727 26.79238281 12.04219727 26.79238281 12.02148438 28.4296875 C11.98628624 31.05781511 11.93704693 33.68489194 11.875 36.3125 C10.83859375 36.30347656 9.8021875 36.29445312 8.734375 36.28515625 C1.46736288 36.04649743 1.46736288 36.04649743 -4.8359375 38.796875 C-5.92431852 40.89248877 -5.92431852 40.89248877 -7.125 44.3125 C-12.89586878 49.93150381 -18.7360471 50.53951707 -26.47265625 50.48828125 C-27.47167969 50.47152344 -28.47070312 50.45476562 -29.5 50.4375 C-30.52222656 50.42847656 -31.54445313 50.41945312 -32.59765625 50.41015625 C-35.10701522 50.3867043 -37.61588336 50.35388355 -40.125 50.3125 C-40.24228126 46.64610752 -40.31260891 42.9802048 -40.375 39.3125 C-40.42527344 37.76755859 -40.42527344 37.76755859 -40.4765625 36.19140625 C-40.56898848 28.93596687 -39.71583248 23.26322238 -34.7121582 17.75805664 C-31.72080325 15.04452168 -29.14724941 13.66740436 -25.125 13.3125 C-25.063125 12.61125 -25.00125 11.91 -24.9375 11.1875 C-23.64804474 6.62481214 -21.10988594 3.6648856 -17.26171875 1.04296875 C-11.31263975 -2.2261368 -6.29547659 -2.88837409 0 0 Z " fill="#E9EAEC" transform="translate(86.125,42.6875)"/>
<path d="M0 0 C0.20753906 0.72445312 0.41507813 1.44890625 0.62890625 2.1953125 C2.72996865 8.78860455 4.78543995 13.5502342 11 17 C13.69688073 17.96823214 16.15964338 18.50169182 19 19 C17.89354697 23.3028729 15.79290582 25.46474644 12.16381836 27.96362305 C8.10892472 29.90574462 3.96479921 29.51851112 -0.4375 29.3125 C-1.35982422 29.28994141 -2.28214844 29.26738281 -3.23242188 29.24414062 C-5.49000802 29.18565394 -7.74411871 29.10377373 -10 29 C-10.17638838 25.83405464 -10.28152076 22.66939127 -10.375 19.5 C-10.42527344 18.613125 -10.47554687 17.72625 -10.52734375 16.8125 C-10.66395053 10.61965941 -9.46828386 7.24545266 -5.49462891 2.47851562 C-3.64631909 0.65013205 -2.62052067 0 0 0 Z " fill="#09132C" transform="translate(60,60)"/>
<path d="M0 0 C4.23301121 2.82200747 7.17159664 5.95228992 8.8125 10.875 C8.89271999 12.28324893 8.92015977 13.69497231 8.91015625 15.10546875 C8.90693359 15.90791016 8.90371094 16.71035156 8.90039062 17.53710938 C8.89201172 18.37048828 8.88363281 19.20386719 8.875 20.0625 C8.87048828 20.90748047 8.86597656 21.75246094 8.86132812 22.62304688 C8.84955403 24.70706155 8.8316189 26.79103977 8.8125 28.875 C5.5125 28.875 2.2125 28.875 -1.1875 28.875 C-1.39375 27.534375 -1.6 26.19375 -1.8125 24.8125 C-3.00967494 19.63288598 -4.90651423 16.1087779 -9.1875 12.875 C-12.7698861 11.20946149 -16.39258029 9.96215671 -20.1875 8.875 C-18.63982547 4.40477504 -17.07699384 2.39013939 -13.18359375 -0.17578125 C-8.67741111 -2.31864305 -4.65004465 -1.64119223 0 0 Z " fill="#08132C" transform="translate(85.1875,46.125)"/>
<path d="M0 0 C3.75626559 -0.35773958 5.73929307 -0.13556761 9.125 1.625 C12.26358304 4.21774251 14.12204834 6.3885545 16 10 C16.25 13.375 16.25 13.375 16 16 C12.24373441 16.35773958 10.26070693 16.13556761 6.875 14.375 C3.73641696 11.78225749 1.87795166 9.6114455 0 6 C-0.25 2.625 -0.25 2.625 0 0 Z " fill="#0C162F" transform="translate(64,59)"/>
</svg>
